<svg width="151" height="37" viewBox="0 0 151 37" fill="none" xmlns="http://www.w3.org/2000/svg">
<g clip-path="url(#clip0_95_936)">
<path d="M124.919 4.93201H135.219C135.597 4.93201 135.906 6.25967 135.906 7.9092V29.9029C135.906 31.539 135.6 32.8801 135.219 32.8801H124.919C124.542 32.8801 124.232 31.5524 124.232 29.9029V7.9092C124.232 6.27308 124.539 4.93201 124.919 4.93201Z" fill="#FF5C00"/>
<path d="M129.21 25.9958C128.114 25.9958 127.222 26.8713 127.222 27.9563C127.222 29.0414 128.11 29.9168 129.21 29.9168C130.311 29.9168 131.199 29.0414 131.199 27.9563C131.199 26.8713 130.311 25.9958 129.21 25.9958Z" fill="#F67F29"/>
<path fill-rule="evenodd" clip-rule="evenodd" d="M129.21 28.3072C129.356 28.3072 129.533 28.182 129.533 27.9563C129.533 27.7338 129.355 27.6054 129.21 27.6054C129.066 27.6054 128.888 27.7338 128.888 27.9563C128.888 28.1789 129.066 28.3072 129.21 28.3072ZM127.222 27.9563C127.222 26.8713 128.114 25.9958 129.21 25.9958C130.311 25.9958 131.199 26.8713 131.199 27.9563C131.199 29.0414 130.311 29.9168 129.21 29.9168C128.11 29.9168 127.222 29.0414 127.222 27.9563Z" fill="black"/>
<path d="M129.519 35.9092L128.906 36.9819H141.268L140.655 35.9092H129.519Z" fill="url(#paint0_linear_95_936)"/>
<path fill-rule="evenodd" clip-rule="evenodd" d="M141.268 36.9819L140.655 35.9092H129.519L128.906 36.9819H141.268Z" fill="black"/>
<path d="M140.963 25.9958C139.867 25.9958 138.975 26.8713 138.975 27.9563C138.975 29.0414 139.863 29.9168 140.963 29.9168C142.064 29.9168 142.952 29.0414 142.952 27.9563C142.952 26.8713 142.064 25.9958 140.963 25.9958Z" fill="#F67F29"/>
<path fill-rule="evenodd" clip-rule="evenodd" d="M140.963 28.3072C141.109 28.3072 141.286 28.182 141.286 27.9563C141.286 27.7338 141.108 27.6054 140.963 27.6054C140.819 27.6054 140.641 27.7338 140.641 27.9563C140.641 28.1789 140.819 28.3072 140.963 28.3072ZM138.975 27.9563C138.975 26.8713 139.867 25.9958 140.963 25.9958C142.064 25.9958 142.952 26.8713 142.952 27.9563C142.952 29.0414 142.064 29.9168 140.963 29.9168C139.863 29.9168 138.975 29.0414 138.975 27.9563Z" fill="black"/>
<path fill-rule="evenodd" clip-rule="evenodd" d="M120.168 35.02C120.288 35.4358 120.506 35.8103 120.797 36.118C121.253 36.6017 121.888 36.9201 122.598 36.9737L127.226 32.9746H131.199L130.182 34.7501H139.992L138.975 32.9746H142.948L147.576 36.9737C148.286 36.9201 148.92 36.6017 149.377 36.118C149.668 35.8103 149.886 35.4358 150.006 35.02C150.074 34.7842 150.111 34.5351 150.111 34.2775V2.70439C150.111 1.20834 148.881 0 147.367 0H122.806C122.678 0 122.551 0.00878856 122.427 0.0257899C121.092 0.208479 120.063 1.33947 120.063 2.70439V34.2775C120.063 34.5351 120.099 34.7842 120.168 35.02ZM125.045 30.2743C125.045 30.3377 125.048 30.4003 125.055 30.462C125.134 31.2548 125.71 31.9039 126.472 32.1024C126.629 32.1432 126.793 32.165 126.963 32.165H143.211C143.38 32.165 143.545 32.1432 143.702 32.1024C144.464 31.9039 145.04 31.2548 145.119 30.462C145.125 30.4003 145.129 30.3377 145.129 30.2743H145.133V12.9301C145.133 12.6905 145.087 12.4613 145.005 12.2504C145.001 12.2392 144.996 12.228 144.991 12.2169C144.706 11.5263 144.018 11.0395 143.215 11.0395H137.315V10.9696C137.315 10.7765 137.157 10.6203 136.961 10.6203H136.365V9.90102H135.514V10.6203H134.664V9.90102H133.813V10.6203H133.217C133.167 10.6203 133.12 10.6303 133.077 10.6485C132.951 10.702 132.863 10.8255 132.863 10.9696V11.0395H126.963C126.229 11.0395 125.591 11.4465 125.268 12.0442C125.238 12.1012 125.21 12.1599 125.185 12.2201C125.181 12.2312 125.176 12.2423 125.172 12.2536C125.09 12.4636 125.045 12.6917 125.045 12.9301V30.2743ZM139.237 9.33794L140.955 10.1969C140.96 10.1992 140.964 10.2013 140.969 10.2033C140.971 10.2043 140.974 10.2052 140.976 10.2061C141.105 10.2574 141.259 10.2068 141.33 10.086L141.622 9.58455C141.71 9.43248 141.651 9.2352 141.493 9.15711L139.45 8.13371C139.383 8.09981 139.312 8.07365 139.237 8.0557C139.159 8.03665 139.077 8.02685 138.996 8.02685H131.182C131.102 8.02685 131.022 8.03644 130.945 8.05508C130.87 8.07304 130.798 8.09942 130.728 8.13371L128.685 9.15711H128.689C128.688 9.15766 128.687 9.15821 128.686 9.15877C128.686 9.15892 128.686 9.15863 128.686 9.15877C128.531 9.23825 128.473 9.43382 128.56 9.58455L128.852 10.086C128.923 10.2068 129.077 10.2574 129.206 10.2061C129.207 10.2057 129.209 10.2052 129.21 10.2047C129.216 10.2023 129.221 10.1997 129.227 10.1969L130.945 9.33794H139.237Z" fill="black"/>
<path fill-rule="evenodd" clip-rule="evenodd" d="M129.533 15.3484V19.2909H140.637V15.3484H129.533ZM142.023 13.037H128.147C127.634 13.037 127.222 13.448 127.222 13.9494V20.6898C127.222 21.1954 127.639 21.6023 128.147 21.6023H142.023C142.535 21.6023 142.948 21.1912 142.948 20.6898V13.9494C142.948 13.4439 142.531 13.037 142.023 13.037Z" fill="black"/>
</g>
<path d="M0 5.308V3.25683H9.66408V5.308H6.0616V15.0238H3.60248V5.308H0Z" fill="black"/>
<path d="M9.52469 15.0238V6.19857H11.8976V7.73839H11.9895C12.1504 7.19064 12.4205 6.77696 12.7997 6.49734C13.1789 6.21389 13.6155 6.07217 14.1097 6.07217C14.2322 6.07217 14.3644 6.07983 14.5061 6.09515C14.6478 6.11047 14.7723 6.13154 14.8796 6.15835V8.33018C14.7647 8.29571 14.6057 8.26507 14.4027 8.23825C14.1997 8.21144 14.0139 8.19803 13.8454 8.19803C13.4853 8.19803 13.1636 8.27656 12.8801 8.4336C12.6005 8.58682 12.3783 8.80132 12.2136 9.07711C12.0527 9.3529 11.9723 9.67082 11.9723 10.0309V15.0238H9.52469Z" fill="black"/>
<path d="M17.6403 15.1904C17.0772 15.1904 16.5754 15.0927 16.1349 14.8974C15.6944 14.6982 15.3459 14.4052 15.0892 14.0183C14.8364 13.6276 14.71 13.1412 14.71 12.5589C14.71 12.0686 14.8 11.6569 14.9801 11.3236C15.1601 10.9904 15.4052 10.7223 15.7155 10.5193C16.0258 10.3162 16.3782 10.163 16.7727 10.0596C17.1711 9.95618 17.5886 9.88341 18.0252 9.84127C18.5385 9.78765 18.9522 9.73785 19.2663 9.69189C19.5804 9.64209 19.8083 9.56931 19.95 9.47355C20.0917 9.37779 20.1626 9.23607 20.1626 9.04838V9.01391C20.1626 8.65002 20.0477 8.36849 19.8179 8.16931C19.5919 7.97013 19.2701 7.87054 18.8526 7.87054C18.4121 7.87054 18.0616 7.96821 17.8011 8.16356C17.5407 8.35508 17.3683 8.5964 17.284 8.88751L15.0203 8.70365C15.1352 8.16739 15.3612 7.70391 15.6983 7.31321C16.0353 6.91868 16.4701 6.61608 17.0025 6.40541C17.5388 6.19091 18.1593 6.08366 18.8641 6.08366C19.3544 6.08366 19.8236 6.14111 20.2718 6.25603C20.7237 6.37094 21.124 6.54905 21.4726 6.79036C21.825 7.03168 22.1027 7.34194 22.3057 7.72115C22.5087 8.09653 22.6102 8.5466 22.6102 9.07136V15.0238H20.289V13.8H20.22C20.0783 14.0758 19.8887 14.319 19.6512 14.5297C19.4137 14.7365 19.1284 14.8993 18.7951 15.018C18.4619 15.133 18.0769 15.1904 17.6403 15.1904ZM18.3412 13.5012C18.7013 13.5012 19.0192 13.4304 19.295 13.2886C19.5708 13.1431 19.7872 12.9477 19.9443 12.7026C20.1013 12.4574 20.1798 12.1797 20.1798 11.8695V10.9329C20.1032 10.9827 19.9979 11.0287 19.8638 11.0708C19.7336 11.1091 19.5861 11.1455 19.4214 11.18C19.2567 11.2106 19.092 11.2394 18.9273 11.2662C18.7626 11.2892 18.6132 11.3102 18.4791 11.3294C18.1919 11.3715 17.941 11.4385 17.7265 11.5305C17.512 11.6224 17.3453 11.7469 17.2266 11.9039C17.1078 12.0572 17.0485 12.2487 17.0485 12.4785C17.0485 12.8117 17.1691 13.0665 17.4105 13.2427C17.6556 13.415 17.9659 13.5012 18.3412 13.5012Z" fill="black"/>
<path d="M23.7406 15.0238V6.19857H26.1882V15.0238H23.7406ZM24.9702 5.06094C24.6063 5.06094 24.2941 4.94029 24.0336 4.69897C23.777 4.45383 23.6487 4.1608 23.6487 3.8199C23.6487 3.48282 23.777 3.19363 24.0336 2.95231C24.2941 2.70717 24.6063 2.58459 24.9702 2.58459C25.334 2.58459 25.6443 2.70717 25.9009 2.95231C26.1614 3.19363 26.2916 3.48282 26.2916 3.8199C26.2916 4.1608 26.1614 4.45383 25.9009 4.69897C25.6443 4.94029 25.334 5.06094 24.9702 5.06094Z" fill="black"/>
<path d="M29.828 9.92171V15.0238H27.3804V6.19857H29.7131V7.75562H29.8165C30.0119 7.24235 30.3393 6.83633 30.799 6.53756C31.2586 6.23496 31.816 6.08366 32.471 6.08366C33.0838 6.08366 33.6182 6.21772 34.074 6.48585C34.5298 6.75398 34.8841 7.13702 35.1369 7.63497C35.3897 8.12909 35.5161 8.71897 35.5161 9.40461V15.0238H33.0685V9.84127C33.0723 9.30119 32.9344 8.87984 32.6548 8.57724C32.3752 8.27081 31.9902 8.1176 31.5 8.1176C31.1705 8.1176 30.8794 8.18846 30.6266 8.33018C30.3776 8.47191 30.1823 8.67875 30.0406 8.95071C29.9027 9.21883 29.8318 9.5425 29.828 9.92171Z" fill="black"/>
<path d="M39.2506 5.308V3.25683H48.9147V5.308H45.3122V15.0238H42.8531V5.308H39.2506Z" fill="black"/>
<path d="M49.6917 15.0238V6.19857H52.1394V15.0238H49.6917ZM50.9213 5.06094C50.5574 5.06094 50.2452 4.94029 49.9848 4.69897C49.7281 4.45383 49.5998 4.1608 49.5998 3.8199C49.5998 3.48282 49.7281 3.19363 49.9848 2.95231C50.2452 2.70717 50.5574 2.58459 50.9213 2.58459C51.2852 2.58459 51.5955 2.70717 51.8521 2.95231C52.1126 3.19363 52.2428 3.48282 52.2428 3.8199C52.2428 4.1608 52.1126 4.45383 51.8521 4.69897C51.5955 4.94029 51.2852 5.06094 50.9213 5.06094Z" fill="black"/>
<path d="M57.319 15.1962C56.415 15.1962 55.6374 15.0046 54.9862 14.6216C54.3389 14.2347 53.841 13.6985 53.4924 13.0128C53.1477 12.3272 52.9753 11.5381 52.9753 10.6457C52.9753 9.74168 53.1496 8.94879 53.4981 8.26698C53.8505 7.58134 54.3504 7.047 54.9977 6.66396C55.6451 6.27709 56.415 6.08366 57.3075 6.08366C58.0774 6.08366 58.7515 6.22347 59.3299 6.50309C59.9083 6.7827 60.366 7.17532 60.7031 7.68093C61.0402 8.18654 61.226 8.78025 61.2604 9.46206H58.9507C58.8856 9.02157 58.7132 8.66726 58.4336 8.39913C58.1578 8.12717 57.7958 7.99119 57.3477 7.99119C56.9685 7.99119 56.6371 8.09461 56.3537 8.30146C56.0741 8.50447 55.8557 8.80132 55.6987 9.19202C55.5417 9.58272 55.4631 10.0558 55.4631 10.6112C55.4631 11.1742 55.5397 11.653 55.693 12.0476C55.85 12.4421 56.0703 12.7428 56.3537 12.9496C56.6371 13.1565 56.9685 13.2599 57.3477 13.2599C57.6273 13.2599 57.8782 13.2024 58.1004 13.0875C58.3263 12.9726 58.5121 12.806 58.6577 12.5877C58.8071 12.3655 58.9047 12.0993 58.9507 11.789H61.2604C61.2221 12.4632 61.0383 13.0569 60.7089 13.5702C60.3833 14.0796 59.9332 14.478 59.3586 14.7652C58.7841 15.0525 58.1042 15.1962 57.319 15.1962Z" fill="black"/>
<path d="M64.2768 12.4842L64.2825 9.54825H64.6388L67.4656 6.19857H70.2752L66.4774 10.6342H65.8971L64.2768 12.4842ZM62.059 15.0238V3.25683H64.5066V15.0238H62.059ZM67.5748 15.0238L64.9778 11.18L66.6095 9.45057L70.4418 15.0238H67.5748Z" fill="black"/>
<path d="M74.366 15.1962C73.4582 15.1962 72.6768 15.0123 72.0218 14.6446C71.3706 14.273 70.8689 13.7483 70.5165 13.0703C70.1641 12.3885 69.9879 11.5822 69.9879 10.6514C69.9879 9.7436 70.1641 8.94688 70.5165 8.26124C70.8689 7.5756 71.3649 7.04126 72.0046 6.65822C72.6481 6.27518 73.4027 6.08366 74.2683 6.08366C74.8505 6.08366 75.3925 6.1775 75.8943 6.36519C76.3999 6.54905 76.8404 6.82675 77.2158 7.1983C77.595 7.56985 77.89 8.03716 78.1006 8.60022C78.3113 9.15946 78.4166 9.81446 78.4166 10.5652V11.2374H70.9646V9.72061H76.1127C76.1127 9.36822 76.0361 9.05604 75.8828 8.78408C75.7296 8.51213 75.517 8.29954 75.2451 8.14632C74.977 7.98928 74.6648 7.91076 74.3085 7.91076C73.937 7.91076 73.6076 7.99694 73.3203 8.16931C73.0369 8.33784 72.8147 8.56575 72.6538 8.85303C72.4929 9.13648 72.4106 9.45249 72.4068 9.80105V11.2432C72.4068 11.6799 72.4872 12.0572 72.6481 12.3751C72.8128 12.693 73.0445 12.9381 73.3433 13.1105C73.6421 13.2829 73.9964 13.3691 74.4062 13.3691C74.6782 13.3691 74.9272 13.3308 75.1532 13.2542C75.3791 13.1775 75.5726 13.0626 75.7334 12.9094C75.8943 12.7562 76.0169 12.5685 76.1012 12.3463L78.3649 12.4957C78.25 13.0396 78.0144 13.5146 77.6582 13.9206C77.3058 14.3228 76.85 14.6369 76.2908 14.8629C75.7354 15.0851 75.0938 15.1962 74.366 15.1962Z" fill="black"/>
<path d="M83.9395 6.19857V8.03716H78.6249V6.19857H83.9395ZM79.8314 4.08419H82.279V12.3119C82.279 12.5379 82.3135 12.7141 82.3825 12.8405C82.4514 12.963 82.5472 13.0492 82.6698 13.099C82.7962 13.1488 82.9417 13.1737 83.1064 13.1737C83.2213 13.1737 83.3362 13.1641 83.4511 13.145C83.5661 13.122 83.6542 13.1048 83.7154 13.0933L84.1004 14.9146C83.9778 14.9529 83.8055 14.997 83.5833 15.0468C83.3611 15.1004 83.0911 15.133 82.7732 15.1445C82.1833 15.1674 81.6662 15.0889 81.2219 14.9089C80.7814 14.7289 80.4385 14.4492 80.1934 14.07C79.9482 13.6908 79.8276 13.212 79.8314 12.6336V4.08419Z" fill="black"/>
<path d="M84.7654 15.0238V6.19857H87.213V15.0238H84.7654ZM85.9949 5.06094C85.6311 5.06094 85.3189 4.94029 85.0584 4.69897C84.8018 4.45383 84.6735 4.1608 84.6735 3.8199C84.6735 3.48282 84.8018 3.19363 85.0584 2.95231C85.3189 2.70717 85.6311 2.58459 85.9949 2.58459C86.3588 2.58459 86.6691 2.70717 86.9257 2.95231C87.1862 3.19363 87.3165 3.48282 87.3165 3.8199C87.3165 4.1608 87.1862 4.45383 86.9257 4.69897C86.6691 4.94029 86.3588 5.06094 85.9949 5.06094Z" fill="black"/>
<path d="M90.8528 9.92171V15.0238H88.4052V6.19857H90.7379V7.75562H90.8413C91.0367 7.24235 91.3642 6.83633 91.8238 6.53756C92.2835 6.23496 92.8408 6.08366 93.4958 6.08366C94.1086 6.08366 94.643 6.21772 95.0988 6.48585C95.5546 6.75398 95.9089 7.13702 96.1617 7.63497C96.4145 8.12909 96.5409 8.71897 96.5409 9.40461V15.0238H94.0933V9.84127C94.0971 9.30119 93.9592 8.87984 93.6796 8.57724C93.4 8.27081 93.015 8.1176 92.5248 8.1176C92.1953 8.1176 91.9042 8.18846 91.6514 8.33018C91.4025 8.47191 91.2071 8.67875 91.0654 8.95071C90.9275 9.21883 90.8566 9.5425 90.8528 9.92171Z" fill="black"/>
<path d="M101.677 18.5171C100.885 18.5171 100.205 18.4079 99.6377 18.1896C99.0747 17.9751 98.6265 17.6821 98.2933 17.3105C97.96 16.939 97.7436 16.5215 97.644 16.058L99.9078 15.7535C99.9767 15.9297 100.086 16.0944 100.235 16.2476C100.385 16.4008 100.582 16.5234 100.827 16.6153C101.076 16.7111 101.379 16.759 101.735 16.759C102.267 16.759 102.706 16.6287 103.051 16.3683C103.399 16.1116 103.573 15.6807 103.573 15.0755V13.461H103.47C103.363 13.7061 103.202 13.9379 102.987 14.1562C102.773 14.3745 102.497 14.5527 102.16 14.6905C101.823 14.8284 101.421 14.8974 100.953 14.8974C100.291 14.8974 99.6875 14.7442 99.1436 14.4377C98.6035 14.1275 98.1726 13.6544 97.8509 13.0186C97.5329 12.3789 97.374 11.5707 97.374 10.5939C97.374 9.59421 97.5368 8.75919 97.8624 8.08887C98.1879 7.41855 98.6208 6.91677 99.1609 6.58352C99.7048 6.25028 100.3 6.08366 100.948 6.08366C101.442 6.08366 101.856 6.16793 102.189 6.33646C102.522 6.50117 102.79 6.70801 102.993 6.95699C103.2 7.20213 103.359 7.44345 103.47 7.68093H103.562V6.19857H105.992V15.11C105.992 15.8607 105.809 16.4889 105.441 16.9945C105.073 17.5001 104.564 17.8793 103.912 18.1322C103.265 18.3888 102.52 18.5171 101.677 18.5171ZM101.729 13.0588C102.124 13.0588 102.457 12.9611 102.729 12.7658C103.005 12.5666 103.215 12.2831 103.361 11.9154C103.51 11.5439 103.585 11.0996 103.585 10.5825C103.585 10.0654 103.512 9.61719 103.367 9.23799C103.221 8.85495 103.01 8.55809 102.735 8.34742C102.459 8.13675 102.124 8.03141 101.729 8.03141C101.327 8.03141 100.988 8.14058 100.712 8.35891C100.436 8.57341 100.228 8.87218 100.086 9.25522C99.9442 9.63826 99.8733 10.0807 99.8733 10.5825C99.8733 11.0919 99.9442 11.5324 100.086 11.9039C100.231 12.2717 100.44 12.557 100.712 12.76C100.988 12.9592 101.327 13.0588 101.729 13.0588Z" fill="black"/>
<path d="M57.655 25.1319C57.609 24.6684 57.4117 24.3084 57.0632 24.0518C56.7146 23.7951 56.2415 23.6668 55.644 23.6668C55.238 23.6668 54.8952 23.7243 54.6155 23.8392C54.3359 23.9502 54.1214 24.1054 53.972 24.3046C53.8265 24.5037 53.7537 24.7297 53.7537 24.9825C53.746 25.1932 53.7901 25.3771 53.8859 25.5341C53.9854 25.6912 54.1214 25.8271 54.2938 25.942C54.4662 26.0531 54.6653 26.1508 54.8913 26.2351C55.1173 26.3155 55.3586 26.3845 55.6153 26.4419L56.6725 26.6947C57.1857 26.8096 57.6569 26.9628 58.0859 27.1544C58.5149 27.3459 58.8864 27.5815 59.2005 27.8611C59.5146 28.1407 59.7578 28.4701 59.9302 28.8493C60.1064 29.2285 60.1964 29.6633 60.2003 30.1536C60.1964 30.8737 60.0126 31.498 59.6487 32.0266C59.2886 32.5514 58.7677 32.9593 58.0859 33.2504C57.4079 33.5377 56.5901 33.6814 55.6325 33.6814C54.6826 33.6814 53.8552 33.5358 53.1504 33.2447C52.4495 32.9536 51.9017 32.5227 51.5072 31.9519C51.1165 31.3774 50.9116 30.6668 50.8924 29.8203H53.2998C53.3266 30.2149 53.4396 30.5443 53.6388 30.8086C53.8418 31.069 54.1118 31.2663 54.4489 31.4004C54.7898 31.5306 55.1748 31.5957 55.6038 31.5957C56.0251 31.5957 56.3909 31.5344 56.7012 31.4118C57.0153 31.2893 57.2585 31.1188 57.4309 30.9005C57.6032 30.6822 57.6894 30.4313 57.6894 30.1478C57.6894 29.8835 57.6109 29.6614 57.4539 29.4813C57.3006 29.3013 57.0747 29.1481 56.7759 29.0217C56.4809 28.8953 56.119 28.7804 55.69 28.677L54.4087 28.3552C53.4166 28.1139 52.6333 27.7366 52.0588 27.2233C51.4842 26.71 51.1988 26.0187 51.2027 25.1492C51.1988 24.4367 51.3884 23.8143 51.7715 23.2818C52.1583 22.7494 52.6889 22.3338 53.363 22.035C54.0372 21.7363 54.8032 21.5869 55.6612 21.5869C56.5346 21.5869 57.2968 21.7363 57.948 22.035C58.603 22.3338 59.1124 22.7494 59.4763 23.2818C59.8402 23.8143 60.0279 24.431 60.0394 25.1319H57.655Z" fill="black"/>
<path d="M62.5703 36.8242C62.26 36.8242 61.9689 36.7993 61.6969 36.7495C61.4288 36.7035 61.2066 36.6442 61.0304 36.5714L61.582 34.7443C61.8693 34.8324 62.1278 34.8803 62.3577 34.8879C62.5913 34.8956 62.7924 34.842 62.961 34.7271C63.1333 34.6121 63.2731 34.4168 63.3804 34.141L63.524 33.7675L60.3582 24.6895H62.9322L64.7593 31.1705H64.8512L66.6956 24.6895H69.2868L65.8567 34.4685C65.692 34.9435 65.4679 35.3572 65.1845 35.7095C64.9049 36.0658 64.5506 36.3396 64.1216 36.5312C63.6926 36.7265 63.1755 36.8242 62.5703 36.8242Z" fill="black"/>
<path d="M77.1137 27.2061L74.8729 27.344C74.8346 27.1525 74.7523 26.9801 74.6259 26.8269C74.4995 26.6698 74.3328 26.5453 74.126 26.4534C73.923 26.3576 73.6798 26.3098 73.3963 26.3098C73.0171 26.3098 72.6973 26.3902 72.4368 26.5511C72.1763 26.7081 72.0461 26.9188 72.0461 27.1831C72.0461 27.3938 72.1304 27.5719 72.2989 27.7174C72.4674 27.863 72.7566 27.9798 73.1665 28.0679L74.7638 28.3897C75.6218 28.5659 76.2614 28.8493 76.6828 29.24C77.1041 29.6307 77.3148 30.144 77.3148 30.7798C77.3148 31.3582 77.1443 31.8657 76.8034 32.3024C76.4664 32.7391 76.0029 33.08 75.413 33.3251C74.827 33.5664 74.1509 33.6871 73.3848 33.6871C72.2166 33.6871 71.2858 33.4439 70.5925 32.9574C69.903 32.4671 69.4989 31.8006 69.3801 30.9579L71.7876 30.8315C71.8603 31.1878 72.0365 31.4597 72.3161 31.6474C72.5958 31.8313 72.9539 31.9232 73.3906 31.9232C73.8196 31.9232 74.1643 31.8409 74.4248 31.6761C74.6891 31.5076 74.8231 31.2912 74.827 31.0269C74.8231 30.8047 74.7293 30.6228 74.5454 30.4811C74.3616 30.3355 74.0781 30.2244 73.6951 30.1478L72.1668 29.8433C71.3049 29.6709 70.6633 29.3722 70.242 28.947C69.8245 28.5218 69.6157 27.9798 69.6157 27.321C69.6157 26.7541 69.7689 26.2657 70.0754 25.8559C70.3856 25.446 70.8204 25.13 71.3796 24.9078C71.9427 24.6857 72.6015 24.5746 73.3561 24.5746C74.4707 24.5746 75.3479 24.8102 75.9876 25.2813C76.6311 25.7524 77.0064 26.394 77.1137 27.2061Z" fill="black"/>
<path d="M82.7817 24.6895V26.5281H77.467V24.6895H82.7817ZM78.6736 22.5751H81.1212V30.8028C81.1212 31.0288 81.1557 31.205 81.2246 31.3314C81.2936 31.454 81.3893 31.5402 81.5119 31.59C81.6383 31.6398 81.7839 31.6647 81.9486 31.6647C82.0635 31.6647 82.1784 31.6551 82.2933 31.6359C82.4082 31.6129 82.4963 31.5957 82.5576 31.5842L82.9426 33.4056C82.82 33.4439 82.6476 33.4879 82.4255 33.5377C82.2033 33.5913 81.9333 33.6239 81.6153 33.6354C81.0254 33.6584 80.5083 33.5799 80.064 33.3998C79.6235 33.2198 79.2807 32.9402 79.0356 32.561C78.7904 32.1818 78.6698 31.703 78.6736 31.1246V22.5751Z" fill="black"/>
<path d="M87.5347 33.6871C86.6269 33.6871 85.8455 33.5032 85.1905 33.1355C84.5393 32.764 84.0375 32.2392 83.6851 31.5612C83.3327 30.8794 83.1565 30.0731 83.1565 29.1423C83.1565 28.2345 83.3327 27.4378 83.6851 26.7522C84.0375 26.0665 84.5335 25.5322 85.1732 25.1492C85.8167 24.7661 86.5713 24.5746 87.437 24.5746C88.0192 24.5746 88.5612 24.6684 89.063 24.8561C89.5686 25.04 90.0091 25.3177 90.3845 25.6892C90.7637 26.0608 91.0586 26.5281 91.2693 27.0912C91.4799 27.6504 91.5853 28.3054 91.5853 29.0562V29.7284H84.1333V28.2116H89.2813C89.2813 27.8592 89.2047 27.547 89.0515 27.275C88.8983 27.0031 88.6857 26.7905 88.4137 26.6373C88.1456 26.4802 87.8334 26.4017 87.4772 26.4017C87.1056 26.4017 86.7762 26.4879 86.489 26.6602C86.2055 26.8288 85.9833 27.0567 85.8225 27.344C85.6616 27.6274 85.5792 27.9434 85.5754 28.292V29.7341C85.5754 30.1708 85.6558 30.5481 85.8167 30.866C85.9814 31.1839 86.2132 31.4291 86.5119 31.6015C86.8107 31.7738 87.165 31.86 87.5749 31.86C87.8468 31.86 88.0958 31.8217 88.3218 31.7451C88.5478 31.6685 88.7412 31.5536 88.9021 31.4004C89.063 31.2471 89.1856 31.0595 89.2698 30.8373L91.5336 30.9867C91.4187 31.5306 91.1831 32.0056 90.8269 32.4116C90.4745 32.8138 90.0187 33.1279 89.4594 33.3539C88.904 33.576 88.2624 33.6871 87.5347 33.6871Z" fill="black"/>
<path d="M92.414 33.5147V24.6895H94.7467V26.2466H94.8502C95.034 25.7295 95.3405 25.3215 95.7695 25.0228C96.1985 24.724 96.7117 24.5746 97.3093 24.5746C97.9145 24.5746 98.4297 24.7259 98.8548 25.0285C99.28 25.3273 99.5635 25.7333 99.7052 26.2466H99.7971C99.9771 25.741 100.303 25.3368 100.774 25.0342C101.249 24.7278 101.81 24.5746 102.457 24.5746C103.281 24.5746 103.949 24.837 104.463 25.3617C104.98 25.8827 105.238 26.6219 105.238 27.5795V33.5147H102.796V28.0622C102.796 27.5719 102.666 27.2042 102.406 26.959C102.145 26.7139 101.82 26.5913 101.429 26.5913C100.985 26.5913 100.638 26.733 100.389 27.0165C100.14 27.2961 100.015 27.6657 100.015 28.1254V33.5147H97.6425V28.0105C97.6425 27.5776 97.518 27.2329 97.2691 26.9763C97.0239 26.7196 96.7002 26.5913 96.2981 26.5913C96.0261 26.5913 95.781 26.6602 95.5626 26.7981C95.3481 26.9322 95.1777 27.1218 95.0513 27.367C94.9249 27.6083 94.8617 27.8917 94.8617 28.2173V33.5147H92.414Z" fill="black"/>
<defs>
<linearGradient id="paint0_linear_95_936" x1="135.089" y1="0.258931" x2="135.089" y2="37.2408" gradientUnits="userSpaceOnUse">
<stop stop-color="#29B6F6"/>
<stop offset="1" stop-color="#0277BD"/>
</linearGradient>
<clipPath id="clip0_95_936">
<rect width="30.0478" height="36.9819" fill="white" transform="translate(120.063)"/>
</clipPath>
</defs>
</svg>
