<svg width="29" height="29" viewBox="0 0 29 29" fill="none" xmlns="http://www.w3.org/2000/svg">
<g clip-path="url(#clip0_79_51)">
<path d="M14.4999 9.66671C15.8291 9.66671 16.9166 8.57921 16.9166 7.25004C16.9166 5.92087 15.8291 4.83337 14.4999 4.83337C13.1708 4.83337 12.0833 5.92087 12.0833 7.25004C12.0833 8.57921 13.1708 9.66671 14.4999 9.66671ZM14.4999 12.0834C13.1708 12.0834 12.0833 13.1709 12.0833 14.5C12.0833 15.8292 13.1708 16.9167 14.4999 16.9167C15.8291 16.9167 16.9166 15.8292 16.9166 14.5C16.9166 13.1709 15.8291 12.0834 14.4999 12.0834ZM14.4999 19.3334C13.1708 19.3334 12.0833 20.4209 12.0833 21.75C12.0833 23.0792 13.1708 24.1667 14.4999 24.1667C15.8291 24.1667 16.9166 23.0792 16.9166 21.75C16.9166 20.4209 15.8291 19.3334 14.4999 19.3334Z" fill="black"/>
</g>
<defs>
<clipPath id="clip0_79_51">
<rect width="29" height="29" fill="white"/>
</clipPath>
</defs>
</svg>
